<svg xmlns="http://www.w3.org/2000/svg" xmlns:xlink="http://www.w3.org/1999/xlink" viewBox="0,0,256,256" width="30px" height="30px" fill-rule="nonzero"><g fill-opacity="0.45882" fill="#000000" fill-rule="nonzero" stroke="none" stroke-width="1" stroke-linecap="butt" stroke-linejoin="miter" stroke-miterlimit="10" stroke-dasharray="" stroke-dashoffset="0" font-family="none" font-weight="none" font-size="none" text-anchor="none" style="mix-blend-mode: normal"><g transform="scale(8.53333,8.53333)"><path d="M6,4c-1.105,0 -2,0.895 -2,2v18c0,1.105 0.895,2 2,2h18c1.105,0 2,-0.895 2,-2v-18c0,-1.105 -0.895,-2 -2,-2zM15,7c4.418,0 8,3.582 8,8c0,4.418 -3.582,8 -8,8c-4.418,0 -8,-3.582 -8,-8c0,-4.418 3.582,-8 8,-8zM13.88086,10l0.18359,5.97656h1.86914l0.18555,-5.97656zM15.00391,17.80469c-0.766,0 -1.22266,0.40652 -1.22266,1.10352c0,0.685 0.45766,1.0918 1.22266,1.0918c0.759,0 1.21484,-0.4068 1.21484,-1.0918c0,-0.697 -0.45584,-1.10352 -1.21484,-1.10352z"></path></g></g></svg>