<svg xmlns="http://www.w3.org/2000/svg"  viewBox="0 0 24 24" width="48px" height="48px" fill-rule="evenodd" clip-rule="evenodd"><path d="M 13.707031 1.4082031 C 13.516906 1.3810781 13.315891 1.4267812 13.150391 1.5507812 C 12.530792 2.0154799 12.046734 2.6187927 11.720703 3.2988281 C 11.15991 2.5875179 10.403876 2.0268934 9.5019531 1.7265625 C 9.1089531 1.5955625 8.6837344 1.8081719 8.5527344 2.2011719 C 8.4217344 2.5941719 8.6343438 3.0193906 9.0273438 3.1503906 C 10.108394 3.5104692 10.893074 4.4042153 11.150391 5.4785156 C 10.517006 5.2377898 9.8509468 5.0996094 9.1582031 5.0996094 C 4.5662031 5.0996094 2.25 8.9736094 2.25 13.849609 C 2.25 18.725609 5.4052031 22.599609 9.1582031 22.599609 L 14.841797 22.599609 C 18.594797 22.599609 21.75 18.725609 21.75 13.849609 C 21.75 8.9736094 19.433797 5.0996094 14.841797 5.0996094 C 14.113196 5.0996094 13.412125 5.246351 12.75 5.5117188 L 12.75 5.3496094 C 12.75 4.3266094 13.232781 3.364 14.050781 2.75 C 14.381781 2.502 14.447219 2.0302187 14.199219 1.6992188 C 14.075219 1.5337188 13.897156 1.4353281 13.707031 1.4082031 z M 9.1582031 6.5996094 C 10.032203 6.5996094 10.853125 6.8820469 11.578125 7.3730469 C 11.832125 7.5460469 12.167875 7.5460469 12.421875 7.3730469 C 13.146875 6.8820469 13.967797 6.5996094 14.841797 6.5996094 C 18.32551 6.5996094 20.003666 9.4903943 20.208984 13.099609 L 16.75 13.099609 L 16.75 11.849609 C 16.75 11.435609 16.414 11.099609 16 11.099609 C 15.586 11.099609 15.25 11.435609 15.25 11.849609 L 15.25 13.099609 L 12.75 13.099609 L 12.75 10.849609 C 12.75 10.435609 12.414 10.099609 12 10.099609 C 11.586 10.099609 11.25 10.435609 11.25 10.849609 L 11.25 13.099609 L 8.75 13.099609 L 8.75 11.849609 C 8.75 11.435609 8.414 11.099609 8 11.099609 C 7.586 11.099609 7.25 11.435609 7.25 11.849609 L 7.25 13.099609 L 3.7910156 13.099609 C 3.996334 9.4903943 5.6744901 6.5996094 9.1582031 6.5996094 z M 3.7792969 14.599609 L 20.220703 14.599609 C 19.944545 18.213716 17.692307 21.099609 14.841797 21.099609 L 9.1582031 21.099609 C 6.3076927 21.099609 4.0554549 18.213716 3.7792969 14.599609 z M 12 16.099609 C 11.80825 16.099609 11.617203 16.173813 11.470703 16.320312 L 9.9707031 17.820312 C 9.6777031 18.112313 9.6777031 18.588859 9.9707031 18.880859 C 10.262703 19.173859 10.737297 19.173859 11.029297 18.880859 L 12 17.910156 L 12.970703 18.880859 C 13.262703 19.173859 13.737297 19.173859 14.029297 18.880859 C 14.322297 18.588859 14.322297 18.112312 14.029297 17.820312 L 12.529297 16.320312 C 12.382797 16.173813 12.19175 16.099609 12 16.099609 z"/></svg>